PathFileType	4	(X/Y/Z)	Kaydara																																																																																																																																																																																																																												
DataRate	CameraRate	NumFrames	NumMarkers	Units	OrigDataRate	OrigDataStartFrame	OrigNumFrames																																																																																																																																																																																																																								
60	60	4	74	mm	60	829	211																																																																																																																																																																																																																								
Frame#	Time	N_lasi			N_rasi			N_rpsi			N_lpsi			N_fneck			N_bneck			N_fhead			N_rhead			N_lhead			N_rshld			N_relbtop			N_relbext			N_relblow			N_rwrext			N_rwrtop			N_rwrlow			N_lshld			N_lelblow			N_lelbtop			N_lwrext			N_lwrtop			N_lwrlow			N_rtopleg			N_ltopleg			N_rkneefr			N_rkneebk			N_rkneeis			N_lkneefr			N_lknssbk			N_lkneeis			N_rankfr			N_rankis			N_rankbk			N_lankfr			N_lankbk			N_lankis			D_lasi			D_rasi			D_lpsi			D_fneck			D_bneck			D_fhead			D_rhead			D_lhead			D_rshld			D_relbtop			D_relbext			D_relblow			D_rwrext			D_rwrtop			D_rwrlow			D_lshld			D_lelbext			D_lelblow			D_lelbtop			D_lwrext			D_lwrtop			D_lwrlow			D_rtopleg			D_ltopleg			D_rkneefr			D_rkneebk			D_rkneeis			D_lkneefr			D_lknssbk			D_lkneeis			D_rankfr			D_rankis			D_rankbk			D_lankfr			D_lankbk			D_lankis			D_rpsi			N_lelbext		
		X1	Y1	Z1	X2	Y2	Z2	X3	Y3	Z3	X4	Y4	Z4	X5	Y5	Z5	X6	Y6	Z6	X7	Y7	Z7	X8	Y8	Z8	X9	Y9	Z9	X10	Y10	Z10	X11	Y11	Z11	X12	Y12	Z12	X13	Y13	Z13	X14	Y14	Z14	X15	Y15	Z15	X16	Y16	Z16	X17	Y17	Z17	X18	Y18	Z18	X19	Y19	Z19	X20	Y20	Z20	X21	Y21	Z21	X22	Y22	Z22	X23	Y23	Z23	X24	Y24	Z24	X25	Y25	Z25	X26	Y26	Z26	X27	Y27	Z27	X28	Y28	Z28	X29	Y29	Z29	X30	Y30	Z30	X31	Y31	Z31	X32	Y32	Z32	X33	Y33	Z33	X34	Y34	Z34	X35	Y35	Z35	X36	Y36	Z36	X37	Y37	Z37	X38	Y38	Z38	X39	Y39	Z39	X40	Y40	Z40	X41	Y41	Z41	X42	Y42	Z42	X43	Y43	Z43	X44	Y44	Z44	X45	Y45	Z45	X46	Y46	Z46	X47	Y47	Z47	X48	Y48	Z48	X49	Y49	Z49	X50	Y50	Z50	X51	Y51	Z51	X52	Y52	Z52	X53	Y53	Z53	X54	Y54	Z54	X55	Y55	Z55	X56	Y56	Z56	X57	Y57	Z57	X58	Y58	Z58	X59	Y59	Z59	X60	Y60	Z60	X61	Y61	Z61	X62	Y62	Z62	X63	Y63	Z63	X64	Y64	Z64	X65	Y65	Z65	X66	Y66	Z66	X67	Y67	Z67	X68	Y68	Z68	X69	Y69	Z69	X70	Y70	Z70	X71	Y71	Z71	X72	Y72	Z72	X73	Y73	Z73	X74	Y74	Z74
																																																																																																																																																																																																																															
159	13.8	-542.60773	1236.82213	-60.81883	-531.25416	1246.73828	-294.81203	-242.58081	1218.98643	-347.178	-278.41518	1220.1503	8.12277	-400.71331	1602.05597	-167.87722	-265.05714	1664.41193	-185.6419	-457.84184	1806.24496	-158.59311	-275.56086	1769.4577	-238.78281	-307.64919	1768.5701	-85.16461	-319.1847	1530.94162	-432.56199	-255.50816	1217.8746	-450.18948	-354.99508	1148.46092	-424.61098	-347.51095	1219.9527	-454.03332	-298.28207	898.1823	-439.90364	-342.87243	891.23146	-458.61134	-377.28088	905.17708	-427.65709	-261.06741	1621.53625	4.45284	-265.19863	1617.52731	279.29838	-231.08761	1536.48331	285.64638	-208.61403	1586.29517	599.33193	-244.26649	1615.39307	610.44682	-279.42972	1574.00085	607.57118	-432.34489	1048.7326	-429.81899	-374.61395	1013.67783	55.23375	-439.80408	561.47419	-251.68907	-335.35942	579.9995	-321.49208	-375.45235	563.97774	-158.98572	-384.64378	539.17553	-91.81887	-257.55939	556.43803	-35.24577	-263.2383	548.06625	-185.22026	-299.80978	140.32267	-268.20324	-300.06647	154.44132	-188.02593	-218.79812	143.36586	-215.02466	-332.98695	192.86913	-114.30606	-258.92838	186.15343	-73.63414	-294.92838	165.15343	-157.63414	-455.52006	1039.75006	1728.27133	-419.11156	1056.57532	1441.84158	-255.3583	1129.35509	1733.68439	-422.65106	1564.18533	1581.68762	-287.23131	1588.6528	1591.04004	-447.66087	1784.18137	1586.28738	-288.75435	1726.48621	1512.67273	-301.07073	1722.29736	1666.79123	-359.22558	1491.56067	1376.20056	-245.64541	1168.22166	1366.95648	-280.37201	1150.15396	1427.35794	-325.13943	1172.46124	1331.43173	-299.52736	918.94127	1352.80853	-351.1034	920.62576	1326.27029	-372.28928	936.95732	1373.78815	-357.34116	1502.14355	1817.38342	-307.15061	1165.90439	1773.13614	-323.69514	1201.89232	1864.36996	-252.90115	1181.3781	1828.95111	-323.85876	941.77864	1858.1221	-367.15584	947.50031	1865.34393	-384.90154	958.57658	1818.81821	-331.93798	1005.68268	1399.94705	-321.01677	1006.55411	1792.23755	-373.83617	455.87654	1444.83887	-274.03234	490.25692	1414.54773	-279.88443	460.00374	1536.3739	-364.54109	452.35561	1765.37552	-251.1092	485.63324	1779.83368	-324.45229	443.02662	1674.12613	-324.17919	129.7263	1416.94855	-294.41349	127.01912	1481.40747	-243.82189	127.1463	1416.12549	-324.35459	134.29881	1790.6749	-251.56324	125.25353	1804.1835	-295.12386	123.16713	1731.19431	-226.1302	1143.7722	1516.72348	-323.31509	1532.25067	295.1009
160	13.817	-542.77344	1237.31216	-61.31088	-530.13592	1246.8911	-295.13453	-243.36414	1219.12292	-345.1458	-278.9242	1220.64636	9.50663	-400.07759	1602.85812	-168.81037	-264.67724	1664.89044	-186.82064	-456.89129	1807.2168	-159.62543	-275.05915	1769.57489	-240.44834	-306.54598	1768.81073	-86.77974	-321.97269	1532.85812	-433.50891	-258.07308	1220.07301	-455.48698	-356.87878	1150.5497	-428.54588	-348.70331	1221.82938	-456.73706	-298.50193	899.93347	-447.12635	-342.19486	892.92366	-467.57729	-377.93053	906.55045	-437.80361	-261.39984	1622.19925	3.33173	-265.8436	1618.4462	278.22819	-231.75404	1537.34116	284.64695	-209.6134	1587.71408	598.56964	-245.22333	1616.89728	609.50317	-280.6694	1575.53131	606.72924	-432.16812	1048.17459	-428.85948	-376.25851	1014.30344	56.76761	-440.55214	561.53893	-250.61823	-335.7151	579.94038	-320.27927	-376.28269	564.11743	-158.18693	-385.03052	539.23302	-90.90242	-258.06677	556.40465	-34.55694	-263.98239	548.19378	-184.4243	-300.05682	140.56528	-268.30372	-300.4241	154.61592	-188.07795	-218.95126	143.69937	-215.08926	-333.16532	192.9215	-114.00069	-259.00106	186.21384	-73.43987	-295.00106	165.21384	-157.43987	-455.30441	1039.73976	1728.33252	-418.70792	1056.83495	1442.61261	-255.10138	1129.33456	1733.68439	-422.47292	1564.1214	1581.75995	-287.1612	1588.69751	1591.19751	-447.76321	1783.88245	1586.04111	-288.7471	1726.52634	1512.76306	-301.36219	1722.53174	1666.92551	-358.93677	1491.56143	1376.33926	-245.4406	1168.21678	1367.13913	-280.11822	1150.15381	1427.47482	-324.83662	1172.46597	1331.4827	-299.212	918.98247	1352.71622	-350.93483	920.66162	1326.31638	-372.14119	936.97296	1373.80219	-357.30221	1502.05704	1817.56653	-307.41543	1165.91141	1773.08304	-323.80295	1201.76773	1864.16534	-252.89902	1181.34415	1828.91327	-323.77693	941.59805	1857.89825	-366.99265	947.34512	1865.20645	-384.97734	958.43033	1818.68576	-331.26205	1005.51346	1399.57474	-321.12747	1006.55998	1792.30438	-373.8496	456.11366	1444.94461	-273.96317	490.26024	1414.44366	-279.734	459.99565	1536.40549	-364.42307	452.39223	1765.41702	-250.90324	485.71476	1779.80591	-324.29909	443.03791	1674.11057	-324.17751	129.71547	1416.96198	-294.39535	127.02261	1481.41449	-243.79831	127.15256	1416.08337	-324.35131	134.29743	1790.65399	-251.54163	125.21116	1804.16061	-295.077	123.1714	1731.20453	-225.91816	1143.83774	1516.69891	-323.99807	1533.19489	294.12149
161	13.833	-542.63088	1237.76718	-61.79118	-529.37302	1246.64223	-295.57882	-245.39738	1219.07524	-344.389	-279.49192	1221.20071	10.24924	-399.81583	1603.51761	-169.47653	-264.38206	1665.82214	-187.25565	-455.91644	1808.10913	-160.72084	-274.49924	1769.26651	-241.76149	-305.56282	1769.20319	-87.92312	-324.27746	1534.68445	-434.27986	-260.0705	1222.22977	-459.42184	-358.55789	1152.51228	-431.6811	-350.05394	1223.4951	-459.20418	-297.5008	901.59798	-455.16533	-339.96838	894.20769	-478.0476	-377.26936	907.50328	-449.51263	-261.64745	1622.89871	2.60519	-266.53267	1619.23965	277.4271	-232.74446	1538.0867	284.11415	-210.79498	1588.86383	597.65602	-246.37688	1618.14606	608.74523	-281.80977	1576.89728	605.95932	-432.8405	1046.33987	-428.894	-377.1505	1014.89792	58.05375	-440.32612	561.2392	-249.80806	-335.14057	579.77776	-319.10952	-376.60316	564.17622	-157.24074	-385.51376	539.49238	-90.20062	-258.77316	556.53969	-33.64133	-264.40159	548.33309	-183.5956	-299.94551	140.57587	-267.86493	-300.48956	154.5995	-187.68337	-218.98998	143.76863	-214.55257	-333.40202	192.92162	-113.68979	-259.34679	186.3236	-72.94394	-295.34679	165.3236	-156.94394	-455.0716	1039.70406	1728.27805	-418.68145	1056.70547	1442.04361	-254.84381	1129.31572	1733.80524	-422.34665	1564.09637	1581.90689	-287.04998	1588.72589	1591.40701	-448.08857	1783.76312	1585.8609	-288.75971	1726.53076	1512.8154	-301.5757	1722.84332	1667.06085	-358.59726	1491.54877	1376.68442	-245.16771	1168.16681	1367.28256	-279.89538	1150.14465	1427.56531	-324.66381	1172.49771	1331.51993	-299.21099	918.92792	1352.90207	-350.80265	920.71014	1326.30875	-371.98513	937.12082	1373.78326	-357.28951	1502.043	1817.76062	-307.58711	1165.88379	1773.09708	-323.81405	1201.69327	1864.12323	-252.80727	1181.1908	1828.8472	-323.70716	941.53862	1857.67944	-366.91486	947.22046	1864.99374	-384.95125	958.29903	1818.43399	-330.58613	1005.34431	1399.20242	-321.23817	1006.56601	1792.37122	-373.76534	456.04393	1444.89243	-273.95052	490.26527	1414.42703	-279.66785	459.97696	1536.37344	-364.32125	452.43912	1765.39429	-250.89464	485.60478	1779.88358	-324.21509	443.05996	1674.14551	-324.16954	129.72029	1416.96091	-294.41519	126.97297	1481.39145	-243.78578	127.13511	1416.08093	-324.32407	134.29762	1790.64651	-251.54871	125.19219	1804.15924	-295.0523	123.13883	1731.2027	-225.68203	1143.95332	1516.76041	-324.82845	1534.10553	293.31511
162	13.85	-542.24236	1238.26454	-62.25893	-529.08478	1246.17378	-296.36591	-247.4457	1218.96729	-343.95691	-279.87633	1221.75201	10.34809	-399.34628	1604.05746	-169.74215	-263.87341	1665.81833	-187.88322	-454.98947	1808.71689	-161.72272	-273.59186	1768.97781	-242.12042	-304.84673	1769.58694	-88.59641	-326.20697	1536.19827	-434.6159	-261.67227	1223.65349	-461.86253	-360.14755	1153.5598	-433.29655	-351.62128	1224.06357	-460.12596	-296.06865	902.88696	-464.14967	-338.15536	895.24109	-487.52007	-375.35904	908.04985	-458.63846	-261.55975	1623.12408	2.17089	-267.08834	1619.8085	276.89581	-233.18956	1538.66714	283.62125	-212.1166	1589.68826	597.38876	-247.51068	1619.17938	608.1879	-282.95954	1578.03406	605.34363	-433.50056	1043.85445	-430.28152	-377.99213	1015.81261	59.29498	-439.6534	561.05278	-248.97783	-334.19476	579.60293	-318.15153	-376.40957	564.12376	-156.37139	-385.95093	539.67201	-89.73807	-259.47983	556.56532	-32.63726	-264.24419	548.52108	-182.69835	-299.72914	140.58266	-267.28516	-300.43154	154.59598	-186.97596	-218.9353	143.65766	-213.67243	-333.56232	192.97436	-113.45862	-259.68523	186.35622	-72.28058	-295.68523	165.35622	-156.28058	-455.01167	1039.60258	1728.29605	-418.4803	1056.70937	1441.87256	-254.55305	1129.34196	1733.86612	-422.23808	1564.02557	1582.10144	-286.96096	1588.75778	1591.67831	-448.24547	1783.60626	1585.79575	-288.78479	1726.57089	1512.90344	-301.75982	1723.05756	1667.30942	-358.29998	1491.54831	1377.00378	-244.89494	1168.14796	1367.24731	-279.67737	1150.15518	1427.56363	-324.50054	1172.53738	1331.55212	-299.01028	919.00948	1352.77328	-350.67242	920.73799	1326.24222	-371.79428	937.08511	1373.68118	-357.17472	1501.97876	1817.90802	-307.70325	1165.89638	1773.17917	-323.71326	1201.59851	1864.10538	-252.71637	1181.13815	1828.89328	-323.65318	941.47408	1857.53922	-366.83399	947.12822	1864.82758	-384.77867	958.28262	1818.17154	-329.91024	1005.17502	1398.8298	-321.34895	1006.57181	1792.4379	-373.74683	456.07998	1444.86877	-273.91012	490.26558	1414.44443	-279.66452	459.97437	1536.36917	-364.27872	452.45285	1765.42984	-250.86508	485.55435	1779.83368	-324.14146	443.09067	1674.10385	-324.16824	129.71313	1416.96793	-294.40668	126.97111	1481.39633	-243.77478	127.12108	1416.09573	-324.31095	134.30634	1790.67337	-251.50457	125.21555	1804.21448	-295.04913	123.1255	1731.21429	-225.29318	1143.99307	1516.51703	-325.61249	1534.85443	292.71891
